<?xml version="1.0" standalone="no"?>
<!DOCTYPE svg PUBLIC "-//W3C//DTD SVG 20010904//EN"
 "http://www.w3.org/TR/2001/REC-SVG-20010904/DTD/svg10.dtd">
<svg version="1.0" xmlns="http://www.w3.org/2000/svg"
 width="504.000000pt" height="316.000000pt" viewBox="0 0 504.000000 316.000000"
 preserveAspectRatio="xMidYMid meet">

<g transform="translate(0.000000,316.000000) scale(0.100000,-0.100000)"
fill="#404040" stroke="none">
<path d="M2400 2955 c0 -14 30 -35 50 -35 36 0 21 34 -18 38 -17 2 -32 0 -32
-3z"/>
<path d="M2240 2935 c-101 -18 -155 -30 -215 -50 -58 -19 -139 -57 -143 -67
-2 -5 -11 -8 -19 -8 -17 0 -96 -41 -101 -52 -2 -5 -9 -8 -16 -8 -6 0 -18 -9
-26 -20 -8 -11 -20 -20 -27 -20 -7 0 -13 -4 -13 -10 0 -5 -5 -10 -10 -10 -10
0 -140 -125 -140 -135 0 -3 -14 -19 -30 -37 -17 -17 -30 -37 -30 -44 0 -8 -3
-14 -8 -14 -4 0 -18 -21 -32 -47 -14 -27 -30 -54 -37 -61 -7 -7 -13 -22 -13
-32 0 -10 -4 -20 -8 -22 -8 -3 -34 -77 -54 -148 -28 -107 -45 -290 -28 -325 5
-11 11 -38 14 -60 12 -105 31 -162 94 -287 30 -60 58 -108 63 -108 5 0 9 -6 9
-13 0 -8 23 -38 50 -67 28 -29 50 -58 50 -63 0 -10 39 -47 49 -47 4 0 24 -16
45 -36 41 -39 168 -124 185 -124 6 0 11 -4 11 -10 0 -5 9 -10 20 -10 11 0 20
-4 20 -10 0 -5 9 -10 20 -10 11 0 20 -4 20 -10 0 -5 7 -10 16 -10 18 0 44 -24
44 -41 0 -6 -10 -21 -22 -32 -16 -13 -19 -21 -10 -24 6 -3 12 -13 12 -24 0
-10 5 -19 10 -19 6 0 10 -50 10 -129 0 -71 3 -136 6 -145 5 -12 21 -16 75 -16
l69 0 0 125 c0 79 4 125 10 125 6 0 10 -17 8 -37 -1 -22 3 -38 10 -41 7 -2 12
-22 12 -48 0 -24 5 -44 10 -44 6 0 10 -12 10 -26 0 -39 22 -54 80 -54 63 0 80
15 80 69 0 23 4 49 9 59 5 9 14 33 19 52 9 31 10 25 11 -47 1 -45 5 -93 11
-107 9 -24 14 -26 70 -26 88 0 90 4 90 153 l0 124 56 7 c30 3 59 4 64 1 11 -7
2 -65 -11 -79 -5 -6 -9 -20 -9 -32 0 -13 -4 -26 -10 -29 -5 -3 -10 -19 -10
-36 0 -16 -4 -29 -10 -29 -5 0 -10 -18 -10 -40 l0 -40 85 0 c84 0 85 0 91 28
15 62 28 72 104 72 49 0 70 -4 70 -12 0 -7 5 -30 11 -51 l10 -37 88 0 c99 0
112 9 87 58 -7 15 -17 43 -21 62 -4 19 -11 41 -15 50 -11 22 -36 87 -54 145
-39 119 -51 150 -58 153 -4 2 -8 12 -8 22 0 12 16 26 45 40 25 12 51 27 58 34
7 6 28 23 47 36 42 30 190 177 190 190 0 5 6 15 14 22 18 19 72 117 81 148 4
14 13 32 19 40 17 21 46 101 46 127 0 12 5 25 10 28 6 3 10 35 10 71 0 73 13
82 56 39 32 -33 48 -32 85 6 l29 30 26 -30 c32 -38 66 -41 82 -6 7 14 12 32
12 39 0 25 28 25 46 1 10 -14 24 -27 31 -29 21 -8 43 5 43 24 0 10 6 21 13 23
10 4 10 6 0 6 -7 1 -13 12 -13 26 0 18 5 25 18 25 10 0 22 -3 26 -7 3 -4 22
-12 41 -19 35 -12 35 -11 35 17 0 16 -4 29 -10 29 -5 0 -10 9 -10 20 0 18 7
20 55 20 54 0 55 0 55 29 0 17 -4 33 -10 36 -21 13 -8 33 30 49 43 17 47 27
29 87 -10 31 -9 40 4 53 18 18 14 64 -10 131 -8 22 -18 57 -23 78 -10 49 -20
59 -20 19 0 -27 -4 -32 -25 -32 -14 0 -25 -4 -25 -10 0 -5 -11 -10 -25 -10
-18 0 -25 -5 -25 -20 0 -15 7 -20 25 -20 14 0 25 -4 25 -10 0 -5 5 -10 11 -10
6 0 17 -7 25 -15 25 -25 -5 -45 -65 -45 -61 0 -66 -15 -21 -62 17 -17 30 -40
30 -51 0 -18 -5 -19 -70 -13 l-70 7 0 -25 c0 -14 5 -26 10 -26 6 0 10 -9 10
-19 0 -11 6 -21 12 -23 9 -3 8 -9 -4 -21 -18 -19 -48 -23 -48 -7 0 6 -9 10
-20 10 -11 0 -20 5 -20 10 0 6 -13 10 -30 10 -33 0 -38 -16 -19 -52 8 -15 8
-27 -2 -44 -17 -32 -36 -30 -70 5 -36 38 -63 44 -67 14 -2 -13 -8 -23 -13 -23
-5 0 -9 -11 -9 -25 0 -14 -7 -28 -15 -31 -20 -8 -65 40 -65 71 0 16 -6 25 -16
25 -18 0 -44 -24 -44 -41 0 -18 -42 -50 -58 -44 -7 3 -16 5 -18 5 -2 0 -4 23
-4 50 0 45 -2 50 -23 50 -12 0 -29 -9 -37 -20 -8 -11 -22 -20 -31 -20 -10 0
-19 -6 -21 -12 -3 -9 -9 -8 -21 4 -18 18 -23 48 -8 48 5 0 11 14 13 30 4 24 1
30 -14 30 -10 0 -25 -6 -32 -12 -12 -11 -11 -15 6 -24 18 -10 17 -13 -21 -52
-23 -23 -41 -46 -41 -51 0 -13 26 -21 65 -21 26 0 35 -5 41 -22 8 -25 -15 -46
-58 -55 -42 -8 -36 -37 12 -58 33 -15 40 -23 40 -47 0 -28 -1 -28 -60 -28 -71
0 -78 -15 -30 -60 34 -31 37 -45 15 -66 -11 -11 -19 -12 -34 -4 -20 10 -91 14
-91 5 0 -3 9 -23 20 -45 38 -74 17 -97 -56 -60 -36 17 -48 19 -59 10 -11 -9
-12 -17 -5 -30 6 -10 10 -32 10 -49 0 -27 -4 -31 -26 -31 -16 0 -37 12 -54 30
-45 48 -60 41 -60 -30 l0 -60 40 0 c22 0 40 -5 40 -10 0 -7 -16 -9 -40 -6 -30
3 -40 1 -40 -10 0 -10 15 -14 60 -14 33 0 60 -4 60 -10 0 -5 7 -10 16 -10 24
0 44 -26 39 -51 -21 -113 -34 -149 -52 -142 -7 3 -13 11 -13 19 0 11 -22 14
-105 14 l-105 0 -7 -30 c-3 -17 -10 -33 -14 -36 -5 -3 -9 -16 -9 -29 0 -13 -4
-27 -10 -30 -5 -3 -10 -17 -10 -31 0 -14 -6 -32 -14 -40 -17 -16 -46 -19 -46
-4 0 6 -22 10 -50 10 -27 0 -50 -4 -50 -10 0 -5 -4 -10 -10 -10 -5 0 -10 21
-10 46 0 44 16 74 40 74 17 0 55 42 74 82 13 26 27 38 58 49 60 20 78 43 78
103 0 64 -11 83 -30 56 -8 -11 -25 -20 -37 -20 -13 0 -23 -4 -23 -10 0 -5 -11
-10 -25 -10 -14 0 -25 -4 -25 -10 0 -5 -8 -10 -19 -10 -10 0 -31 -12 -47 -28
-16 -15 -45 -37 -64 -49 -85 -53 -112 -64 -153 -61 l-42 3 51 32 c27 18 61 44
74 58 13 14 28 25 33 25 14 0 67 61 61 71 -3 5 0 9 5 9 6 0 11 7 11 15 0 8 5
15 10 15 6 0 10 14 10 30 0 17 -4 30 -10 30 -5 0 -10 6 -10 13 0 7 -9 19 -20
27 -11 8 -20 24 -20 36 0 21 -24 39 -39 30 -3 -2 -33 -5 -66 -7 -33 -1 -73 -6
-90 -10 -16 -4 -51 -10 -77 -14 -60 -7 -117 -42 -118 -72 0 -12 5 -25 10 -28
6 -3 10 -15 10 -25 0 -10 4 -20 8 -22 5 -1 11 -21 15 -43 3 -22 3 -34 0 -27
-2 6 -11 12 -20 12 -8 0 -28 15 -45 33 -16 17 -41 44 -54 60 -14 15 -32 27
-39 27 -7 0 -15 6 -18 13 -2 6 -8 -4 -12 -24 -6 -35 -4 -39 67 -112 49 -50 86
-80 113 -89 48 -16 85 -50 85 -78 0 -15 6 -20 26 -20 26 0 26 -1 10 -25 -9
-14 -16 -45 -16 -75 0 -31 -6 -57 -14 -66 -22 -21 -26 -17 -26 26 0 22 -4 40
-10 40 -5 0 -10 14 -10 30 0 17 -4 30 -10 30 -5 0 -10 16 -10 35 0 33 -2 35
-35 35 -19 0 -34 3 -33 8 3 16 -23 60 -64 103 -24 26 -50 56 -58 68 -8 12 -20
21 -27 21 -8 0 -13 14 -13 39 0 22 -4 42 -9 45 -5 3 -7 14 -4 25 2 10 -3 25
-11 34 -9 8 -16 20 -16 26 0 6 -4 11 -10 11 -5 0 -10 7 -10 15 0 8 -4 15 -10
15 -5 0 -10 9 -10 20 0 11 -4 20 -8 20 -5 0 -15 12 -23 28 -19 37 -55 72 -74
72 -8 0 -15 5 -15 10 0 6 -8 10 -18 10 -9 0 -23 9 -30 20 -7 11 -23 20 -36 20
-57 0 -86 12 -86 35 0 19 -17 35 -36 35 -10 0 -3 -49 9 -54 10 -5 10 -7 0 -12
-7 -3 -13 -23 -13 -43 0 -21 -3 -40 -6 -44 -11 -11 -34 5 -34 24 0 10 -4 19
-10 19 -5 0 -10 24 -10 54 0 30 -4 58 -10 61 -5 3 -10 22 -10 41 0 19 -4 34
-8 34 -13 0 -32 48 -32 81 0 16 9 47 20 69 15 30 20 59 20 120 0 47 4 80 10
80 6 0 10 -16 10 -36 0 -21 4 -33 10 -29 6 3 10 17 10 31 0 13 5 24 10 24 6 0
10 7 10 15 0 8 5 15 10 15 6 0 10 7 10 16 0 20 24 44 44 44 13 0 16 -14 16
-85 l0 -85 53 4 c28 3 52 6 52 6 0 1 93 9 119 10 28 1 46 25 46 59 0 17 5 31
10 31 6 0 10 14 10 31 0 17 -4 28 -10 24 -14 -9 -12 8 3 24 10 11 10 14 0 18
-7 3 -13 16 -13 29 0 13 -4 24 -10 24 -5 0 -10 11 -10 25 0 14 -4 25 -10 25
-5 0 -10 7 -10 15 0 8 -4 24 -10 35 -5 11 -14 29 -20 40 -14 28 -13 32 10 18
11 -7 20 -18 20 -25 0 -7 5 -13 10 -13 6 0 10 -7 10 -15 0 -8 5 -15 10 -15 6
0 10 -7 10 -15 0 -8 5 -15 10 -15 6 0 10 -5 10 -10 0 -6 21 -32 46 -57 37 -38
47 -44 56 -32 7 11 11 11 15 2 3 -8 23 -13 49 -13 24 0 44 -4 44 -10 0 -20 51
-10 75 15 14 13 25 27 25 30 0 3 -22 5 -50 5 -60 0 -66 17 -20 60 36 34 37 40
7 40 -26 0 -77 21 -77 32 0 4 18 14 40 24 50 22 56 54 10 54 -27 0 -30 3 -30
31 0 25 4 30 23 29 49 -4 57 -1 57 26 0 15 -10 35 -21 45 -18 16 -20 21 -8 35
8 10 22 14 38 11 13 -3 31 -3 38 0 15 6 18 53 3 53 -5 0 -10 12 -10 26 0 24 3
26 28 19 15 -3 38 -7 52 -8 23 -2 25 1 25 45 0 55 5 54 -115 33z m-613 -537
c-3 -8 -6 -5 -6 6 -1 11 2 17 5 13 3 -3 4 -12 1 -19z m1303 -1578 c0 -11 5
-20 10 -20 16 0 11 -17 -6 -24 -27 -10 -54 3 -46 22 15 40 42 54 42 22z"/>
<path d="M2790 2921 c0 -25 6 -27 13 -6 4 8 2 17 -3 20 -6 4 -10 -3 -10 -14z"/>
<path d="M2890 2875 c0 -8 -4 -15 -10 -15 -5 0 -10 -7 -10 -15 0 -19 2 -19 44
1 29 14 32 19 21 30 -18 19 -45 18 -45 -1z"/>
<path d="M2519 2840 c-80 -24 -209 -119 -209 -155 0 -8 -4 -15 -10 -15 -5 0
-10 -13 -10 -30 0 -16 -4 -30 -10 -30 -5 0 -10 -20 -10 -45 0 -25 5 -45 10
-45 6 0 10 -11 10 -25 0 -24 25 -61 64 -94 10 -9 24 -22 31 -28 8 -7 32 -13
53 -13 23 0 42 -5 45 -12 4 -10 7 -10 18 0 7 7 39 12 76 12 35 0 63 4 63 10 0
6 7 10 15 10 8 0 15 5 15 10 0 6 5 10 11 10 7 0 27 16 46 35 31 32 33 38 26
77 -13 77 -10 93 15 96 13 2 30 -2 39 -10 15 -12 16 -7 9 55 -4 38 -11 74 -16
80 -52 64 -69 76 -143 106 -32 12 -99 13 -138 1z"/>
<path d="M2981 2824 c-1 -7 -14 -26 -31 -44 -16 -18 -27 -36 -24 -41 3 -5 25
-9 50 -9 33 0 44 -4 44 -16 0 -20 -24 -44 -45 -44 -9 0 -23 -7 -31 -15 -14
-13 -14 -17 0 -30 8 -8 24 -15 35 -15 22 0 41 -27 34 -47 -3 -7 -10 -13 -16
-13 -32 0 -87 -23 -87 -35 0 -8 4 -15 8 -15 16 0 52 -37 52 -53 0 -19 -21 -27
-76 -27 -37 0 -44 -3 -44 -20 0 -11 5 -20 10 -20 6 0 10 -13 10 -30 0 -28 -3
-30 -35 -30 -19 0 -35 5 -35 10 0 6 -11 10 -25 10 -20 0 -25 -5 -25 -24 0 -31
27 -55 36 -32 10 27 30 18 50 -24 10 -22 25 -40 32 -40 16 0 42 24 42 40 0 16
26 40 43 40 10 0 18 -16 23 -47 10 -53 25 -63 51 -34 9 12 23 21 30 21 7 0 13
5 13 10 0 17 29 11 38 -7 5 -10 6 -27 1 -38 -12 -31 -10 -65 4 -65 20 1 54 32
40 37 -20 7 -15 51 6 63 29 15 52 41 46 51 -4 5 -19 9 -36 9 -16 0 -29 5 -29
10 0 6 -9 10 -21 10 -15 0 -19 4 -15 16 3 9 6 18 6 20 0 2 7 4 15 4 8 0 15 5
15 10 0 6 14 10 30 10 23 0 30 4 30 20 0 11 -6 20 -12 20 -7 0 -26 11 -43 24
-26 21 -27 25 -14 38 8 8 36 18 62 22 48 7 64 29 30 40 -10 3 -23 18 -30 32
-10 21 -10 29 2 40 7 8 21 14 29 14 9 0 16 2 16 5 0 13 -50 55 -65 55 -8 0
-15 5 -15 10 0 6 -7 10 -15 10 -8 0 -15 5 -15 10 0 6 -8 10 -17 10 -10 1 -36
19 -58 40 -22 22 -45 40 -52 40 -6 0 -14 6 -16 13 -4 8 -6 8 -6 1z"/>
<path d="M3900 2710 c0 -11 5 -20 10 -20 6 0 10 9 10 20 0 11 -4 20 -10 20 -5
0 -10 -9 -10 -20z"/>
<path d="M3580 2660 c-8 -5 -27 -10 -42 -10 -16 0 -28 -4 -28 -10 0 -5 -7 -10
-15 -10 -24 0 -155 -134 -155 -158 0 -12 -4 -24 -10 -27 -12 -8 -13 -119 -1
-143 5 -9 15 -30 22 -45 16 -35 64 -84 102 -104 16 -8 30 -13 31 -11 12 20 26
83 26 116 0 23 5 42 10 42 6 0 10 7 10 15 0 20 45 65 65 65 8 0 15 5 15 10 0
6 9 10 20 10 11 0 20 5 20 10 0 14 182 13 230 -2 22 -7 40 -16 40 -20 0 -5 5
-8 10 -8 6 0 10 18 10 40 0 22 -4 40 -10 40 -5 0 -10 14 -10 30 0 17 -4 30
-10 30 -5 0 -10 5 -10 10 0 16 -88 100 -105 100 -8 0 -15 5 -15 10 0 6 -16 10
-35 10 -19 0 -35 5 -35 10 0 13 -110 13 -130 0z"/>
<path d="M4007 2643 c-14 -13 -6 -33 13 -33 13 0 20 7 20 20 0 19 -20 27 -33
13z"/>
<path d="M4098 2541 c-55 -35 -50 -51 17 -51 58 0 59 1 31 55 -11 20 -11 20
-48 -4z"/>
<path d="M2250 2292 c-14 -14 -24 -29 -22 -32 2 -5 6 -6 34 -9 9 -1 9 -4 0
-13 -24 -24 -12 -44 37 -67 61 -29 125 -23 135 12 10 37 7 68 -8 83 -19 18
-30 18 -46 -2 -18 -21 -64 -14 -68 10 -4 18 -25 47 -34 45 -2 0 -14 -12 -28
-27z"/>
<path d="M2512 2248 c-18 -18 -15 -51 4 -44 9 3 18 6 20 6 2 0 4 11 4 25 0 27
-9 32 -28 13z"/>
<path d="M2728 2233 c-14 -3 -16 -8 -8 -23 13 -23 40 -16 40 11 0 19 -2 20
-32 12z"/>
<path d="M2620 2190 c0 -5 -9 -10 -20 -10 -11 0 -20 -5 -20 -11 0 -18 30 -41
45 -35 17 6 21 66 5 66 -5 0 -10 -4 -10 -10z"/>
<path d="M3220 2170 c0 -13 7 -20 20 -20 13 0 20 7 20 20 0 13 -7 20 -20 20
-13 0 -20 -7 -20 -20z"/>
<path d="M2485 2118 c-27 -15 -33 -27 -28 -49 4 -15 15 -19 44 -19 35 0 39 3
39 26 0 14 -6 32 -14 40 -17 17 -16 16 -41 2z"/>
<path d="M2730 2089 c-25 -11 -46 -24 -48 -30 -2 -5 -10 -9 -18 -9 -19 0 -84
-65 -84 -85 0 -8 -4 -15 -10 -15 -5 0 -10 -15 -10 -33 0 -33 3 -35 108 -84
142 -68 153 -70 191 -34 16 15 44 34 61 41 16 7 30 19 30 26 0 8 6 14 14 14 7
0 27 16 43 35 23 26 38 35 62 35 17 0 31 -5 31 -12 0 -6 3 -9 6 -6 17 18 -72
138 -101 138 -8 0 -15 3 -15 8 0 15 -81 32 -147 31 -45 0 -83 -7 -113 -20z"/>
<path d="M3193 2073 c-20 -7 -15 -23 7 -23 11 0 20 4 20 9 0 13 -12 19 -27 14z"/>
<path d="M2060 2040 c0 -5 -7 -10 -15 -10 -16 0 -51 -18 -72 -37 -17 -16 -16
-38 2 -53 18 -15 42 -5 94 40 26 21 32 32 26 49 -6 21 -35 30 -35 11z"/>
<path d="M2440 1984 c0 -3 6 -12 14 -20 20 -19 26 -18 26 6 0 13 -7 20 -20 20
-11 0 -20 -3 -20 -6z"/>
<path d="M1732 1954 c-7 -8 -20 -37 -28 -65 -14 -47 -14 -52 2 -71 21 -22 52
-18 95 13 15 10 31 19 36 19 13 0 83 66 83 78 0 6 -9 14 -20 17 -11 3 -20 10
-20 15 0 5 -9 8 -20 7 -11 -1 -20 -5 -20 -9 0 -4 -13 -8 -30 -8 -16 0 -30 5
-30 10 0 15 -33 11 -48 -6z"/>
<path d="M2105 1893 c-34 -5 -95 -48 -95 -66 0 -17 61 -49 102 -53 53 -6 78
-14 78 -24 0 -6 -9 -10 -20 -10 -11 0 -20 -4 -20 -10 0 -5 -13 -10 -30 -10
-23 0 -31 5 -35 23 -5 19 -12 23 -35 19 -26 -4 -28 -6 -18 -26 6 -11 14 -28
18 -36 4 -8 19 -16 34 -18 14 -2 26 -8 26 -13 0 -5 9 -9 20 -9 11 0 20 -4 20
-10 0 -5 14 -10 30 -10 17 0 30 -4 30 -10 0 -6 30 -10 70 -10 40 0 70 -4 70
-10 0 -5 7 -10 15 -10 9 0 25 -9 37 -20 12 -11 33 -20 46 -20 15 0 26 7 29 20
3 11 9 20 14 20 5 0 9 9 9 20 0 13 -7 20 -19 20 -14 0 -19 6 -16 20 2 11 0 20
-6 20 -5 0 -7 11 -3 25 3 14 2 31 -4 38 -5 6 -9 28 -9 47 1 20 -2 43 -6 52 -9
26 -75 50 -112 42 -49 -12 -78 -11 -114 3 -33 13 -49 14 -106 6z m225 -193 c0
-11 -4 -20 -10 -20 -5 0 -10 9 -10 20 0 11 5 20 10 20 6 0 10 -9 10 -20z"/>
<path d="M3112 1841 c-8 -5 -12 -21 -10 -39 2 -23 6 -29 16 -23 8 5 12 21 10
39 -2 23 -6 29 -16 23z"/>
<path d="M1875 1792 c-18 -13 -38 -60 -32 -76 5 -11 20 -16 52 -16 38 0 45 3
45 20 0 11 -4 20 -10 20 -5 0 -10 14 -10 30 0 30 -21 40 -45 22z"/>
<path d="M2540 1771 c0 -17 5 -33 10 -36 6 -3 10 -14 10 -24 0 -23 83 -111
104 -111 9 0 16 -4 16 -10 0 -5 9 -10 19 -10 11 0 23 -4 26 -10 9 -15 74 -12
91 4 32 32 7 146 -32 146 -8 0 -22 4 -32 9 -9 5 -37 15 -62 22 -25 7 -62 21
-82 31 -53 26 -68 24 -68 -11z"/>
<path d="M2540 1525 c0 -8 5 -15 10 -15 6 0 10 7 10 15 0 8 -4 15 -10 15 -5 0
-10 -7 -10 -15z"/>
<path d="M2178 1153 c6 -2 18 -2 25 0 6 3 1 5 -13 5 -14 0 -19 -2 -12 -5z"/>
<path d="M4545 1113 c-122 -32 -182 -113 -156 -211 17 -62 57 -97 142 -125
113 -38 129 -47 129 -73 0 -25 -17 -34 -66 -34 -27 0 -34 4 -34 20 0 11 -4 20
-10 20 -5 0 -10 9 -10 20 0 19 -7 20 -93 20 -90 0 -93 -1 -92 -22 0 -13 8 -37
18 -55 9 -18 17 -37 17 -43 0 -14 46 -60 60 -60 5 0 10 -4 10 -10 0 -5 9 -10
20 -10 11 0 20 -4 20 -10 0 -6 40 -10 100 -10 60 0 100 4 100 10 0 6 9 10 20
10 11 0 20 5 20 10 0 6 5 10 11 10 17 0 69 60 69 80 0 10 7 25 15 33 38 38
-43 197 -100 197 -8 0 -15 5 -15 10 0 6 -9 10 -20 10 -11 0 -20 5 -20 10 0 6
30 10 70 10 l70 0 0 41 c0 35 -6 47 -49 88 -49 49 -67 56 -166 66 -22 2 -49 1
-60 -2z m95 -147 c0 -8 3 -21 6 -30 5 -13 -1 -16 -25 -16 -17 0 -31 5 -31 10
0 6 -7 10 -15 10 -8 0 -15 9 -15 20 0 17 7 20 40 20 28 0 40 -4 40 -14z"/>
<path d="M370 1103 c-26 -11 -40 -31 -40 -57 0 -14 -4 -26 -10 -26 -5 0 -10
-13 -10 -30 0 -16 -4 -30 -10 -30 -5 0 -10 -13 -10 -30 0 -16 -4 -30 -10 -30
-5 0 -10 -13 -10 -30 0 -16 -4 -30 -10 -30 -5 0 -10 -13 -10 -30 0 -16 -4 -30
-10 -30 -5 0 -10 -11 -10 -25 0 -14 -4 -25 -10 -25 -5 0 -10 -13 -10 -30 0
-16 -4 -30 -10 -30 -5 0 -10 -13 -10 -30 0 -16 -4 -30 -10 -30 -5 0 -10 -18
-10 -40 l0 -40 78 0 c80 0 102 9 102 40 0 10 8 27 19 38 15 18 29 22 85 22
l66 0 0 -30 c0 -16 5 -30 10 -30 6 0 10 -9 10 -20 0 -19 7 -20 90 -20 87 0 90
1 90 23 0 12 -9 47 -20 77 -11 30 -20 61 -20 68 0 7 -9 32 -20 54 -11 23 -20
52 -20 65 0 13 -4 23 -10 23 -5 0 -10 14 -10 30 0 17 -4 30 -10 30 -5 0 -10
14 -10 30 0 17 -4 30 -10 30 -5 0 -10 14 -10 30 0 17 -4 30 -10 30 -5 0 -10
12 -10 26 0 45 -34 64 -109 63 -36 0 -73 -3 -81 -6z m90 -251 c0 -15 5 -33 11
-39 18 -18 3 -43 -25 -43 -35 0 -40 15 -21 66 19 50 35 57 35 16z"/>
<path d="M803 1103 c-10 -3 -13 -71 -13 -289 l0 -284 205 0 205 0 0 84 c0 84
0 84 -27 89 -16 3 -62 4 -103 3 -41 -2 -81 -1 -87 2 -10 3 -13 52 -13 197 l0
192 -46 7 c-53 7 -103 7 -121 -1z"/>
<path d="M1304 1103 c-14 -3 -24 -14 -27 -31 -4 -21 -3 -307 2 -514 l1 -28
199 0 c228 0 211 -8 211 100 l0 69 -45 7 c-25 3 -74 4 -110 2 -48 -3 -66 0
-70 10 -3 7 -5 97 -5 198 0 101 -3 184 -7 184 -5 1 -35 2 -68 4 -33 2 -70 1
-81 -1z"/>
<path d="M3253 1093 c-16 -6 -19 -213 -3 -213 6 0 10 -9 10 -20 0 -11 -4 -20
-10 -20 -6 0 -10 -54 -10 -141 0 -108 3 -144 14 -155 10 -10 38 -14 89 -14 85
0 87 2 87 81 0 49 11 81 36 106 19 19 44 16 44 -6 0 -11 5 -23 10 -26 6 -3 10
-15 10 -26 0 -10 5 -19 10 -19 6 0 10 -11 10 -25 0 -14 5 -25 10 -25 6 0 10
-7 10 -16 0 -35 25 -44 129 -44 93 0 101 2 101 19 0 11 -7 26 -15 35 -8 8 -15
21 -15 29 0 9 -3 17 -7 19 -7 3 -37 55 -67 115 -6 13 -14 23 -18 23 -5 0 -8 9
-8 20 0 11 -4 20 -10 20 -5 0 -10 7 -10 15 0 8 -4 15 -10 15 -5 0 -10 16 -10
35 0 29 10 45 66 102 36 38 75 80 86 95 l19 28 -115 0 c-106 0 -118 -2 -134
-21 -9 -11 -25 -30 -35 -42 -10 -12 -26 -34 -35 -49 -16 -27 -50 -44 -49 -24
0 6 -1 39 -1 74 l-2 62 -82 -1 c-46 0 -89 -3 -95 -6z"/>
<path d="M3860 815 l0 -285 225 0 225 0 0 80 0 80 -135 0 -135 0 0 36 0 36 68
-2 c37 -2 88 -2 115 -1 l47 1 0 70 0 70 -115 0 -115 0 0 30 0 30 125 0 125 0
0 70 0 70 -215 0 -215 0 0 -285z"/>
<path d="M2694 407 c-44 -8 -114 -64 -114 -91 0 -9 -4 -16 -10 -16 -5 0 -10
-7 -10 -15 0 -8 5 -15 10 -15 6 0 10 -9 10 -21 0 -22 22 -49 39 -49 6 0 11 -3
11 -7 0 -5 12 -14 27 -20 32 -15 153 -17 153 -3 0 6 6 10 13 10 7 0 19 10 27
21 8 12 21 27 28 35 6 7 12 20 12 28 0 13 -14 16 -81 16 -70 0 -80 -2 -75 -16
3 -9 6 -18 6 -20 0 -2 16 -4 35 -4 19 0 35 -3 35 -6 0 -18 -34 -34 -75 -34
-63 0 -95 31 -95 93 0 42 3 46 36 62 36 17 72 17 147 -1 24 -6 28 -4 25 11 -7
38 -78 57 -154 42z"/>
<path d="M4260 407 c-89 -18 -140 -83 -117 -149 14 -39 50 -78 72 -78 8 0 15
-4 15 -10 0 -6 30 -10 70 -10 40 0 70 4 70 10 0 6 6 10 14 10 12 0 26 20 26
36 0 2 -13 4 -30 4 -16 0 -30 -4 -30 -10 0 -5 -22 -10 -50 -10 -27 0 -50 5
-50 10 0 6 -9 10 -20 10 -19 0 -21 4 -35 74 -2 12 8 30 27 47 34 33 93 39 138
16 29 -15 50 -12 50 8 0 31 -87 55 -150 42z"/>
<path d="M4752 410 c-35 -8 -72 -36 -72 -54 1 -16 30 -48 70 -76 51 -36 61
-47 54 -64 -7 -18 -64 -23 -64 -6 0 6 -14 10 -31 10 -24 0 -30 -3 -25 -16 3
-9 6 -18 6 -20 0 -2 7 -4 15 -4 8 0 15 -4 15 -10 0 -5 23 -10 50 -10 28 0 50
5 50 10 0 6 6 10 14 10 8 0 18 9 21 21 7 22 -12 79 -26 79 -8 0 -17 6 -72 53
-29 25 -9 46 32 31 21 -8 32 -8 45 1 15 12 14 15 -13 34 -16 12 -31 21 -33 20
-1 -1 -18 -5 -36 -9z"/>
<path d="M183 403 c-10 -3 -13 -38 -13 -124 l0 -119 80 0 c73 0 80 2 80 20 0
17 -7 20 -50 20 l-50 0 0 40 0 40 50 0 c43 0 50 3 50 20 0 17 -7 20 -50 20
-43 0 -50 3 -50 20 0 16 7 20 34 20 19 0 41 3 50 6 21 8 21 30 0 38 -18 7
-113 7 -131 -1z"/>
<path d="M403 403 c-14 -5 -19 -196 -7 -227 19 -50 67 13 62 80 -2 23 2 39 10
41 6 3 12 -2 12 -10 0 -8 25 -40 55 -71 40 -42 61 -57 77 -54 22 3 23 7 26
119 3 116 3 117 -22 123 -46 11 -56 -1 -56 -65 0 -32 -3 -59 -6 -59 -8 0 -59
55 -92 98 -24 31 -34 36 -59 25z"/>
<path d="M762 393 c-43 -21 -77 -70 -77 -111 0 -35 37 -84 83 -109 26 -15 142
-17 142 -3 0 6 7 10 15 10 25 0 65 46 65 75 0 24 -2 25 -70 25 -63 0 -70 -2
-70 -20 0 -17 7 -20 40 -20 43 0 47 -4 26 -26 -9 -8 -35 -14 -66 -14 -45 0
-56 4 -81 31 -23 24 -27 36 -23 62 9 51 45 77 102 73 27 -2 58 -9 71 -15 19
-11 25 -10 36 6 12 16 10 20 -18 35 -41 22 -132 23 -175 1z"/>
<path d="M1057 403 c-4 -3 -7 -60 -7 -125 l0 -118 29 0 c37 0 41 11 41 130 0
88 -2 100 -19 110 -23 12 -35 13 -44 3z"/>
<path d="M1178 403 c-16 -4 -18 -18 -18 -109 0 -109 8 -134 44 -134 13 0 16
14 16 80 0 44 3 80 6 80 9 0 54 -53 54 -62 0 -15 87 -98 102 -98 24 0 28 21
28 135 0 82 -3 104 -15 109 -33 12 -45 -4 -45 -63 0 -31 -5 -63 -10 -71 -6 -9
-10 -11 -10 -3 0 7 -16 28 -35 47 -19 20 -35 40 -35 46 0 5 -4 10 -10 10 -5 0
-10 6 -10 14 0 8 -7 17 -16 20 -17 6 -19 6 -46 -1z"/>
<path d="M1488 403 c-16 -4 -18 -19 -18 -124 l0 -119 76 0 c52 0 80 4 90 14
22 22 17 26 -32 26 -44 0 -74 16 -74 40 0 24 30 40 74 40 25 0 46 3 46 6 0 17
-32 33 -71 36 -32 2 -45 8 -47 21 -3 14 4 17 41 17 54 0 77 8 77 25 0 7 -7 16
-16 19 -18 7 -120 6 -146 -1z"/>
<path d="M1705 398 c-7 -21 -7 -38 -6 -140 l1 -98 80 0 c73 0 80 2 80 20 0 17
-7 20 -49 20 -41 0 -51 4 -56 20 -3 11 -3 29 0 40 5 16 15 20 56 20 42 0 49 3
49 20 0 18 -7 20 -56 20 -52 0 -55 1 -52 23 3 20 8 22 50 19 38 -3 49 0 54 13
10 25 -13 35 -84 35 -41 0 -64 -4 -67 -12z"/>
<path d="M1933 404 c-9 -4 -13 -39 -13 -125 l0 -120 28 3 c25 3 27 7 30 51 3
48 15 61 26 30 16 -43 52 -83 74 -83 12 0 22 2 22 5 0 12 -24 55 -32 55 -4 0
-8 9 -8 20 0 11 -4 20 -10 20 -18 0 -11 15 12 25 12 6 26 17 31 26 14 22 1 66
-22 79 -23 12 -121 22 -138 14z m102 -51 c16 -16 16 -17 -1 -30 -27 -20 -49
-12 -52 20 -3 21 1 27 17 27 11 0 27 -8 36 -17z"/>
<path d="M2163 403 c-9 -3 -13 -35 -13 -110 0 -108 8 -133 44 -133 24 0 24
235 0 244 -9 3 -16 6 -17 5 -1 0 -8 -3 -14 -6z"/>
<path d="M2270 286 l0 -126 30 0 30 0 0 80 c0 47 4 80 10 80 6 0 10 -3 10 -7
0 -5 13 -22 28 -40 38 -45 76 -94 80 -104 6 -15 50 -10 56 7 3 9 6 63 6 120
l0 104 -30 0 c-30 0 -30 0 -30 -57 0 -32 -5 -65 -10 -73 -5 -8 -10 -10 -10 -5
0 6 -16 28 -35 48 -19 20 -35 41 -35 45 0 16 -36 42 -68 48 l-32 7 0 -127z"/>
<path d="M3083 400 c-12 -5 -27 -18 -33 -30 -10 -18 -5 -26 34 -65 24 -25 49
-45 54 -45 11 0 22 -23 22 -46 0 -9 -11 -14 -30 -14 -16 0 -30 5 -30 10 0 6
-11 10 -25 10 -18 0 -25 -5 -25 -20 0 -11 7 -20 15 -20 8 0 15 -4 15 -10 0 -5
20 -10 45 -10 51 0 95 32 95 70 0 21 -41 70 -58 70 -16 0 -62 52 -56 62 4 6
25 7 50 3 36 -5 44 -3 44 9 0 31 -67 46 -117 26z"/>
<path d="M3280 285 l0 -125 80 0 c73 0 80 2 80 20 0 17 -7 20 -45 20 -39 0
-45 3 -51 25 -11 42 1 55 51 55 38 0 45 3 45 20 0 17 -7 20 -50 20 -43 0 -50
3 -50 19 0 17 8 20 47 23 35 2 49 8 51 19 4 21 -25 29 -100 29 l-58 0 0 -125z"/>
<path d="M3508 404 c-11 -10 -10 -216 1 -232 4 -8 19 -12 32 -10 20 2 25 10
27 41 2 20 6 37 8 37 10 0 34 -29 34 -40 0 -17 26 -40 44 -40 24 0 21 52 -4
70 -26 19 -25 38 2 61 25 23 27 71 3 95 -17 18 -134 32 -147 18z m108 -48 c19
-20 18 -34 -6 -41 -29 -9 -60 4 -60 25 0 30 42 40 66 16z"/>
<path d="M3727 404 c-3 -3 8 -35 24 -71 16 -36 29 -71 29 -79 0 -8 5 -14 10
-14 6 0 10 -9 10 -20 0 -11 5 -20 10 -20 6 0 10 -9 10 -20 0 -32 53 -27 68 5
7 14 12 32 12 40 0 8 5 15 10 15 6 0 10 9 10 20 0 11 5 20 10 20 6 0 10 11 10
25 0 14 5 25 10 25 6 0 10 9 10 20 0 11 5 20 10 20 16 0 12 27 -5 34 -21 8
-45 -3 -45 -20 0 -8 -4 -14 -10 -14 -5 0 -10 -11 -10 -25 0 -14 -4 -25 -10
-25 -5 0 -10 -7 -10 -15 0 -20 -22 -65 -31 -65 -5 0 -12 12 -15 28 -11 42 -51
124 -66 133 -15 10 -32 11 -41 3z"/>
<path d="M4035 398 c-3 -8 -4 -63 -3 -124 3 -105 4 -109 26 -112 l23 -3 -3
123 c-3 108 -5 123 -21 126 -9 2 -19 -3 -22 -10z"/>
<path d="M4493 403 c-10 -3 -13 -38 -13 -124 l0 -119 80 0 c73 0 80 2 80 20 0
17 -7 20 -50 20 l-50 0 0 40 0 40 50 0 c43 0 50 3 50 20 0 17 -7 20 -50 20
-45 0 -50 2 -50 23 0 20 4 22 50 19 44 -4 50 -2 50 16 0 11 -7 23 -16 26 -18
7 -113 7 -131 -1z"/>
</g>
</svg>
